<?xml version="1.0" encoding="UTF-8"?><svg xmlns="http://www.w3.org/2000/svg" xmlns:xlink="http://www.w3.org/1999/xlink" width="375" zoomAndPan="magnify" viewBox="0 0 375 374.999991" height="374.999991" preserveAspectRatio="xMidYMid meet" version="1.0"><defs><clipPath id="clip-0"><path d="M 41.835938 41.835938 L 332.835938 41.835938 L 332.835938 332.835938 L 41.835938 332.835938 Z M 41.835938 41.835938 " clip-rule="nonzero"/></clipPath><clipPath id="clip-1"><path d="M 90 99 L 332.835938 99 L 332.835938 332.835938 L 90 332.835938 Z M 90 99 " clip-rule="nonzero"/></clipPath></defs><g clip-path="url(#clip-0)"><path fill="rgb(33.329773%, 37.649536%, 66.268921%)" d="M 332.914062 187.390625 C 332.914062 248.839844 294.847656 301.382812 240.992188 322.714844 C 239.34375 323.371094 237.664062 324.007812 235.96875 324.582031 C 235.390625 324.800781 234.804688 325.007812 234.21875 325.203125 C 231.820312 326.023438 229.398438 326.785156 226.945312 327.476562 C 224.570312 328.144531 222.160156 328.753906 219.730469 329.308594 C 217.945312 329.710938 216.15625 330.078125 214.347656 330.425781 C 209.566406 331.324219 204.703125 331.980469 199.757812 332.394531 C 199.042969 332.453125 198.328125 332.511719 197.601562 332.558594 C 194.238281 332.800781 190.824219 332.914062 187.390625 332.914062 C 107.019531 332.914062 41.867188 267.765625 41.867188 187.390625 C 41.867188 107.019531 107.019531 41.867188 187.390625 41.867188 C 240.289062 41.867188 286.597656 70.082031 312.054688 112.296875 C 312.125 112.398438 312.183594 112.515625 312.238281 112.621094 C 315.511719 118.023438 318.417969 123.683594 320.953125 129.527344 C 322.140625 132.269531 323.246094 135.058594 324.269531 137.882812 C 324.753906 139.207031 325.214844 140.542969 325.65625 141.890625 C 325.953125 142.769531 326.230469 143.644531 326.507812 144.53125 C 328.421875 150.753906 329.929688 157.164062 330.992188 163.730469 C 331.070312 164.203125 331.152344 164.6875 331.222656 165.171875 C 332.339844 172.410156 332.914062 179.832031 332.914062 187.390625 Z M 332.914062 187.390625 " fill-opacity="1" fill-rule="nonzero"/></g><g clip-path="url(#clip-1)"><path fill="rgb(23.529053%, 24.708557%, 49.409485%)" d="M 332.914062 187.390625 C 332.914062 248.839844 294.847656 301.382812 240.992188 322.714844 C 239.34375 323.371094 237.664062 324.007812 235.96875 324.582031 C 235.390625 324.800781 234.804688 325.007812 234.21875 325.203125 C 231.820312 326.023438 229.398438 326.785156 226.945312 327.476562 C 224.570312 328.144531 222.160156 328.753906 219.730469 329.308594 C 217.945312 329.710938 216.15625 330.078125 214.347656 330.425781 C 209.566406 331.324219 204.703125 331.980469 199.757812 332.394531 L 90.792969 279.394531 L 233.042969 99.480469 L 272.722656 114.707031 L 325.652344 141.890625 C 325.953125 142.769531 326.230469 143.644531 326.507812 144.53125 C 328.421875 150.753906 329.929688 157.164062 330.988281 163.730469 C 331.070312 164.203125 331.152344 164.6875 331.21875 165.171875 C 332.339844 172.410156 332.914062 179.832031 332.914062 187.390625 Z M 332.914062 187.390625 " fill-opacity="1" fill-rule="nonzero"/></g><path fill="rgb(100%, 100%, 100%)" d="M 90.792969 99.480469 L 233.03125 99.480469 L 233.03125 279.394531 L 90.792969 279.394531 Z M 90.792969 99.480469 " fill-opacity="1" fill-rule="nonzero"/><path fill="rgb(78.42865%, 78.42865%, 78.42865%)" d="M 104.804688 116.800781 L 146.132812 116.800781 L 146.132812 161.957031 L 104.804688 161.957031 Z M 104.804688 116.800781 " fill-opacity="1" fill-rule="nonzero"/><path fill="rgb(88.62915%, 88.238525%, 88.238525%)" d="M 157.207031 116.800781 L 218.980469 116.800781 L 218.980469 121.492188 L 157.207031 121.492188 Z M 157.207031 116.800781 " fill-opacity="1" fill-rule="nonzero"/><path fill="rgb(88.62915%, 88.238525%, 88.238525%)" d="M 157.207031 130.011719 L 218.980469 130.011719 L 218.980469 134.699219 L 157.207031 134.699219 Z M 157.207031 130.011719 " fill-opacity="1" fill-rule="nonzero"/><path fill="rgb(88.62915%, 88.238525%, 88.238525%)" d="M 157.207031 143.207031 L 218.980469 143.207031 L 218.980469 147.894531 L 157.207031 147.894531 Z M 157.207031 143.207031 " fill-opacity="1" fill-rule="nonzero"/><path fill="rgb(88.62915%, 88.238525%, 88.238525%)" d="M 157.207031 156.414062 L 218.980469 156.414062 L 218.980469 161.105469 L 157.207031 161.105469 Z M 157.207031 156.414062 " fill-opacity="1" fill-rule="nonzero"/><path fill="rgb(88.62915%, 88.238525%, 88.238525%)" d="M 104.804688 169.621094 L 218.980469 169.621094 L 218.980469 174.3125 L 104.804688 174.3125 Z M 104.804688 169.621094 " fill-opacity="1" fill-rule="nonzero"/><path fill="rgb(88.62915%, 88.238525%, 88.238525%)" d="M 104.804688 182.828125 L 218.980469 182.828125 L 218.980469 187.519531 L 104.804688 187.519531 Z M 104.804688 182.828125 " fill-opacity="1" fill-rule="nonzero"/><path fill="rgb(88.62915%, 88.238525%, 88.238525%)" d="M 104.804688 196.035156 L 218.980469 196.035156 L 218.980469 200.726562 L 104.804688 200.726562 Z M 104.804688 196.035156 " fill-opacity="1" fill-rule="nonzero"/><path fill="rgb(88.62915%, 88.238525%, 88.238525%)" d="M 104.804688 209.242188 L 218.980469 209.242188 L 218.980469 213.933594 L 104.804688 213.933594 Z M 104.804688 209.242188 " fill-opacity="1" fill-rule="nonzero"/><path fill="rgb(88.62915%, 88.238525%, 88.238525%)" d="M 104.804688 222.449219 L 218.980469 222.449219 L 218.980469 227.140625 L 104.804688 227.140625 Z M 104.804688 222.449219 " fill-opacity="1" fill-rule="nonzero"/><path fill="rgb(88.62915%, 88.238525%, 88.238525%)" d="M 104.804688 235.65625 L 218.980469 235.65625 L 218.980469 240.347656 L 104.804688 240.347656 Z M 104.804688 235.65625 " fill-opacity="1" fill-rule="nonzero"/><path fill="rgb(88.62915%, 88.238525%, 88.238525%)" d="M 104.804688 248.863281 L 218.980469 248.863281 L 218.980469 253.554688 L 104.804688 253.554688 Z M 104.804688 248.863281 " fill-opacity="1" fill-rule="nonzero"/><path fill="rgb(88.62915%, 88.238525%, 88.238525%)" d="M 104.804688 262.070312 L 218.980469 262.070312 L 218.980469 266.761719 L 104.804688 266.761719 Z M 104.804688 262.070312 " fill-opacity="1" fill-rule="nonzero"/><path fill="rgb(99.21875%, 78.819275%, 23.139954%)" d="M 212.484375 244.28125 L 178.9375 221.800781 L 241.675781 128.1875 L 275.21875 150.671875 Z M 212.484375 244.28125 " fill-opacity="1" fill-rule="nonzero"/><path fill="rgb(96.859741%, 65.489197%, 22.349548%)" d="M 202.183594 237.378906 L 189.238281 228.703125 L 251.976562 135.09375 L 264.917969 143.765625 Z M 202.183594 237.378906 " fill-opacity="1" fill-rule="nonzero"/><path fill="rgb(100%, 100%, 100%)" d="M 212.480469 244.277344 L 175.488281 263.214844 L 178.933594 221.792969 Z M 212.480469 244.277344 " fill-opacity="1" fill-rule="nonzero"/><path fill="rgb(23.529053%, 24.708557%, 49.409485%)" d="M 176.902344 246.179688 L 175.488281 263.214844 L 190.699219 255.421875 Z M 176.902344 246.179688 " fill-opacity="1" fill-rule="nonzero"/><path fill="rgb(23.529053%, 24.708557%, 49.409485%)" d="M 275.21875 150.671875 L 241.675781 128.1875 L 247.351562 119.714844 L 280.898438 142.199219 Z M 275.21875 150.671875 " fill-opacity="1" fill-rule="nonzero"/><path fill="rgb(91.369629%, 38.038635%, 16.079712%)" d="M 247.34375 119.71875 L 280.890625 142.203125 C 286.515625 133.8125 284.269531 122.449219 275.878906 116.824219 L 272.722656 114.707031 C 264.332031 109.082031 252.96875 111.328125 247.34375 119.71875 Z M 247.34375 119.71875 " fill-opacity="1" fill-rule="nonzero"/></svg>